<svg width="32" height="32" viewBox="0 0 32 32" fill="none" xmlns="http://www.w3.org/2000/svg">
<path d="M17.1067 2.90661C16.7592 2.74815 16.3818 2.66614 16 2.66614C15.6181 2.66614 15.2407 2.74815 14.8933 2.90661L3.46666 8.10661C3.23006 8.21094 3.0289 8.38181 2.88768 8.59842C2.74645 8.81503 2.67126 9.06803 2.67126 9.32661C2.67126 9.58519 2.74645 9.83819 2.88768 10.0548C3.0289 10.2714 3.23006 10.4423 3.46666 10.5466L14.9067 15.7599C15.2541 15.9184 15.6315 16.0004 16.0133 16.0004C16.3952 16.0004 16.7726 15.9184 17.12 15.7599L28.56 10.5599C28.7966 10.4556 28.9978 10.2847 29.139 10.0681C29.2802 9.85153 29.3554 9.59853 29.3554 9.33995C29.3554 9.08137 29.2802 8.82837 29.139 8.61176C28.9978 8.39514 28.7966 8.22427 28.56 8.11995L17.1067 2.90661Z" stroke="currentColor" stroke-width="2" stroke-linecap="round" stroke-linejoin="round"/>
<path d="M2.66669 16C2.66606 16.255 2.73858 16.5049 2.87565 16.7199C3.01272 16.935 3.20858 17.1062 3.44002 17.2133L14.9067 22.4267C15.2523 22.5832 15.6273 22.6641 16.0067 22.6641C16.3861 22.6641 16.7611 22.5832 17.1067 22.4267L28.5467 17.2267C28.7827 17.1206 28.9827 16.9481 29.1224 16.7303C29.2621 16.5125 29.3354 16.2587 29.3334 16" stroke="currentColor" stroke-width="2" stroke-linecap="round" stroke-linejoin="round"/>
<path d="M2.66669 22.6666C2.66606 22.9216 2.73858 23.1715 2.87565 23.3866C3.01272 23.6016 3.20858 23.7729 3.44002 23.88L14.9067 29.0933C15.2523 29.2498 15.6273 29.3307 16.0067 29.3307C16.3861 29.3307 16.7611 29.2498 17.1067 29.0933L28.5467 23.8933C28.7827 23.7872 28.9827 23.6147 29.1224 23.3969C29.2621 23.1791 29.3354 22.9254 29.3334 22.6666" stroke="currentColor" stroke-width="2" stroke-linecap="round" stroke-linejoin="round"/>
</svg>
