<svg width="32" height="32" viewBox="0 0 32 32" fill="none" xmlns="http://www.w3.org/2000/svg">
<path d="M16 7.99996V2.66663H10.6667" stroke="currentColor" stroke-width="2" stroke-linecap="round" stroke-linejoin="round"/>
<path d="M10.6667 24L5.33334 29.3333V10.6667C5.33334 9.95942 5.61429 9.28115 6.11439 8.78105C6.61449 8.28095 7.29277 8 8.00001 8H24C24.7073 8 25.3855 8.28095 25.8856 8.78105C26.3857 9.28115 26.6667 9.95942 26.6667 10.6667V21.3333C26.6667 22.0406 26.3857 22.7189 25.8856 23.219C25.3855 23.719 24.7073 24 24 24H10.6667Z" stroke="currentColor" stroke-width="2" stroke-linecap="round" stroke-linejoin="round"/>
<path d="M2.66666 16H5.33332" stroke="currentColor" stroke-width="2" stroke-linecap="round" stroke-linejoin="round"/>
<path d="M12 14.6666V17.3333" stroke="currentColor" stroke-width="2" stroke-linecap="round" stroke-linejoin="round"/>
<path d="M20 14.6666V17.3333" stroke="currentColor" stroke-width="2" stroke-linecap="round" stroke-linejoin="round"/>
<path d="M26.6667 16H29.3334" stroke="currentColor" stroke-width="2" stroke-linecap="round" stroke-linejoin="round"/>
</svg>
