<?xml version="1.0" encoding="UTF-8"?>
<svg xmlns="http://www.w3.org/2000/svg" xmlns:xlink="http://www.w3.org/1999/xlink" width="200px" height="200px" viewBox="0 0 200 200" version="1.1">
<g id="surface1">
<path style=" stroke:none;fill-rule:nonzero;fill:rgb(17.647059%,72.941178%,41.176471%);fill-opacity:1;" d="M 70.085938 101.402344 C 63.011719 105.449219 38.941406 116.992188 38.941406 133.46875 C 38.941406 154.144531 55.9375 163.597656 71.523438 163.597656 C 87.113281 163.597656 104.03125 154.148438 104.03125 133.46875 C 104.03125 116.992188 79.828125 105.480469 72.910156 101.402344 C 71.863281 100.804688 71.132812 100.832031 70.089844 101.402344 Z M 71.730469 0.960938 C 116.035156 0.960938 141.882812 29.863281 141.882812 59.679688 C 141.882812 73.957031 134.128906 87.226562 121.597656 96.257812 C 133.871094 106.808594 143.476562 117.90625 143.476562 135.707031 C 143.476562 165.8125 116.660156 194.457031 71.730469 194.457031 C 26.796875 194.457031 0.214844 168.242188 0.00390625 135.707031 C -0.203125 117.898438 9.691406 106.804688 21.855469 96.257812 C 9.40625 87.226562 1.546875 73.957031 1.546875 59.679688 C 1.546875 29.859375 27.265625 0.960938 71.730469 0.960938 Z M 70.320312 93.671875 C 71.363281 94.273438 72.09375 94.300781 73.136719 93.671875 C 80.03125 89.628906 104.257812 78.085938 104.257812 61.636719 C 104.257812 40.957031 87.3125 31.476562 71.730469 31.476562 C 56.144531 31.476562 39.199219 40.957031 39.199219 61.636719 C 39.199219 78.085938 63.246094 89.648438 70.320312 93.671875 Z M 70.320312 93.671875 "/>
</g>
</svg>
