<svg viewBox="0 0 163.72 163.72" xmlns="http://www.w3.org/2000/svg" id="Layer_3">
    <defs>
        <style>.cls-1{fill:#ff5e38;}</style>
    </defs>
    <path d="M111.85,163.72h-60A11.89,11.89,0,0,1,40,151.84V123.73H11.88A11.89,11.89,0,0,1,0,111.85v-100A11.89,11.89,0,0,1,11.88,0h20A11.89,11.89,0,0,1,43.75,11.88V120h68.1a11.89,11.89,0,0,1,11.88,11.88v20A11.89,11.89,0,0,1,111.85,163.72Zm-68.1-40v28.11A8.13,8.13,0,0,0,51.87,160h60a8.13,8.13,0,0,0,8.12-8.12v-20a8.13,8.13,0,0,0-8.12-8.12ZM11.88,3.76a8.13,8.13,0,0,0-8.13,8.12v100A8.13,8.13,0,0,0,11.88,120H40V11.88a8.13,8.13,0,0,0-8.12-8.12Z"
          class="cls-1"></path>
</svg>