<?xml version="1.0" encoding="utf-8"?>
<!-- Generator: Adobe Illustrator 26.0.1, SVG Export Plug-In . SVG Version: 6.00 Build 0)  -->
<svg version="1.1" id="Layer_1" xmlns="http://www.w3.org/2000/svg" xmlns:xlink="http://www.w3.org/1999/xlink" x="0px" y="0px"
	 viewBox="0 0 97 119" style="enable-background:new 0 0 97 119;" xml:space="preserve">
<style type="text/css">
	.st0{fill:#041C4E;}
	.st1{display:none;}
</style>
<g>
	<g>
		<path class="st0" d="M18.2,48.5c0,0,5.1-7.2,11.9-7.4c10.5-0.2,19,18.7,20.3,21.4C62,36.6,81.1,14.6,96.7,0H1.1
			c0,9,0.1,99.7,0.1,107.1c0,5.9-0.8,10.1-1.2,11.9c4.2-0.7,20.3-3.4,36.7-9.3c29-10.4,40.4-21.6,40.5-21.7l0.7-0.7l0.4,0.9
			c0,0.1,3.6,8.1,7.2,12.3c4,4.7,6.3,5.3,7.5,4.9c1.6-0.5,2.7-3.1,3.2-7.6c0.4-4.3,0.8-14.1,0.8-25.9c0-21.4,0-49.6,0-63.8
			C68.8,42.7,48.1,94.5,48.1,94.5S34.5,48.2,18.2,48.5z"/>
	</g>
</g>
<g id="social_landscape" class="st1">
</g>
<g id="guides" class="st1">
</g>
</svg>
