<svg version="1.2" xmlns="http://www.w3.org/2000/svg" viewBox="0 0 1055 1414" width="1055" height="1414">
	<title>Swisscom_Logo-svg</title>
	<defs>
		<linearGradient id="g1" x2="1" gradientUnits="userSpaceOnUse" gradientTransform="matrix(-130.664,-498.548,162.763,-42.659,453.643,1274.528)">
			<stop offset="0" stop-color="#350706"/>
			<stop offset=".36" stop-color="#3f0808"/>
			<stop offset=".98" stop-color="#5b0c0e"/>
			<stop offset="1" stop-color="#5c0c0e"/>
		</linearGradient>
		<radialGradient id="g2" cx="0" cy="0" r="1" gradientUnits="userSpaceOnUse" gradientTransform="matrix(279.454,0,0,279.454,469.431,269.949)">
			<stop offset="0" stop-color="#003789" stop-opacity="1"/>
			<stop offset="1" stop-color="#5fc7ff" stop-opacity=".98"/>
		</radialGradient>
		<radialGradient id="g3" cx="0" cy="0" r="1" gradientUnits="userSpaceOnUse" gradientTransform="matrix(333.626,0,0,333.626,656.888,232.122)">
			<stop offset="0" stop-color="#ec0a1c"/>
			<stop offset="1" stop-color="#bb0e15"/>
		</radialGradient>
		<radialGradient id="g4" cx="0" cy="0" r="1" gradientUnits="userSpaceOnUse" gradientTransform="matrix(573.039,0,0,573.039,964.744,707.391)">
			<stop offset="0" stop-color="#5bc0ff" stop-opacity=".98"/>
			<stop offset="1" stop-color="#003789" stop-opacity="1"/>
		</radialGradient>
		<radialGradient id="g5" cx="0" cy="0" r="1" gradientUnits="userSpaceOnUse" gradientTransform="matrix(374.36,0,0,374.36,235.698,936.989)">
			<stop offset="0" stop-color="#42b4f3" stop-opacity=".98"/>
			<stop offset="1" stop-color="#003a80" stop-opacity="1"/>
		</radialGradient>
		<radialGradient id="g6" cx="0" cy="0" r="1" gradientUnits="userSpaceOnUse" gradientTransform="matrix(661.434,0,0,661.434,716.048,489.155)">
			<stop offset="0" stop-color="#5fc7ff" stop-opacity="1"/>
			<stop offset="1" stop-color="#003785" stop-opacity=".98"/>
		</radialGradient>
		<radialGradient id="g7" cx="0" cy="0" r="1" gradientUnits="userSpaceOnUse" gradientTransform="matrix(764.514,0,0,764.514,144.117,361.539)">
			<stop offset="0" stop-color="#ec0a1c"/>
			<stop offset="1" stop-color="#9e0d18"/>
		</radialGradient>
	</defs>
	<style>
		.s0 { fill: #ffffff } 
		.s1 { fill: url(#g1) } 
		.s2 { fill: url(#g2) } 
		.s3 { fill: url(#g3) } 
		.s4 { fill: url(#g4) } 
		.s5 { fill: url(#g5) } 
		.s6 { fill: url(#g6) } 
		.s7 { fill: url(#g7) } 
	</style>
	<path id="Layer" class="s0" d="m472.5 363.6c-7.9 0.9-15.7 2.9-23 5.9-7.4 3.1-14.3 7-20.6 11.9-6.3 4.9-12 10.5-16.7 16.9-4.8 6.4-8.7 13.3-11.6 20.7-12.8 28.4-19.7 59.8-38.4 85.3-38.8 53.2-139.4 40.7-154.8 113.7-22.5 107.3 117 129.9 158.4 204.5 30.3 55.5 15.5 140.7 72.9 179.3q3.3 2.2 6.7 4.1 3.4 1.9 7 3.5 3.6 1.6 7.3 2.9 3.7 1.3 7.5 2.3 0.7 0.2 1.4 0.3 0.6 0.2 1.3 0.3 0.7 0.2 1.4 0.3 0.6 0.1 1.3 0.2c0.5 0.1-0.1-652.1-0.1-652.1z"/>
	<path id="Layer" class="s1" d="m472.6 1016l-5.4-1.1q-3.8-1-7.5-2.4-3.7-1.3-7.3-2.9-3.6-1.6-7.1-3.4-3.5-1.9-6.8-4.1c-57.3-38.6-42.5-124.7-72.7-179.3q-4-6.6-8.7-12.8-4.6-6.2-9.8-12-5.3-5.7-11-10.9-5.8-5.1-12.1-9.7l-1.5-1.3c-6.6 6.7-16.5 17.1-32.4 33q-4.7 4.7-9.2 9.6-4.5 4.9-8.8 9.9-4.4 5-8.5 10.1-4.2 5.2-8.3 10.4 13.9 14 26.6 29.1 12.7 15 24.2 31 11.5 16 21.7 32.9 10.2 16.9 19 34.5c27.7 62.2 35.1 130 56.8 194q2.7 9 6.1 17.8 3.3 8.7 7.4 17.2 4 8.5 8.7 16.7 4.6 8.1 9.9 15.9 3.4 5.1 7.5 9.6 4 4.5 8.7 8.4 4.7 3.9 9.9 7.1 5.2 3.1 10.8 5.5v-253.5z"/>
	<path id="Layer" class="s2" d="m404.5 227c6 6.6 13.8 14.7 20.7 21.9 7 7.2 16.4 16.9 26.5 26.6 6.2 5.9 13.9 13.8 20.4 19.4v-293.1q-2.6-0.5-5.2-0.8-2.5-0.4-5.1-0.5-2.6-0.2-5.2-0.2-2.6 0-5.2 0.1-6.5 0.4-13 1.3-6.5 0.8-12.9 2.1-6.4 1.4-12.7 3.1-6.4 1.8-12.5 4.1-5.5 1.9-10.8 4.3-5.3 2.4-10.4 5.3-5 2.8-9.8 6.1-4.8 3.3-9.3 7-5.1 4.1-9.3 9-4.3 4.8-7.7 10.3-3.4 5.6-5.8 11.6-2.4 6-3.8 12.3-1.4 8.9-1.4 17.8 0.1 9 1.6 17.8 1.4 8.8 4.3 17.3 2.9 8.5 7.1 16.4 2.6 5.5 5.4 10.8 2.8 5.4 5.9 10.6 3.1 5.2 6.4 10.2 3.3 5.1 6.8 10c2.4 3.2 7 8.4 10.8 12.7 7.9 8.1 16.1 17.2 24.2 26.5z"/>
	<path id="Layer" class="s3" d="m872.1 453.7q-1.3-16.6-4.1-33.1-2.7-16.4-6.9-32.5-4.1-16.2-9.7-31.9-5.5-15.7-12.5-30.8-6-13.1-13.2-25.6-7.2-12.5-15.5-24.3-8.3-11.8-17.5-22.8-9.3-11.1-19.4-21.3c-2.7-2.6-5.4-5.4-8.2-7.9q-5.7-5.3-11.7-10.4-5.9-5.1-12.1-9.9-6.2-4.8-12.6-9.3-6.3-4.5-12.9-8.8-6.5-4.1-13.2-8-6.6-3.9-13.4-7.5-6.9-3.6-13.8-6.8-7-3.3-14.1-6.3-11.7-5-23.7-9-12-4-24.3-7-12.3-3-24.8-5.1-12.5-2.1-25.1-3.2-11.6-1.3-23.2-1.1-11.7 0.2-23.2 2-11.5 1.7-22.7 5-11.2 3.3-21.8 8v148.2c16.6 15.3 36.6 33.6 46.7 42.6 7 6.2 13.8 12.2 20.9 18.3l20.6 17.3 21.5 18.1c8.9 7.5 40.7 33.3 44.5 36.5l6.2 5 80.5 65.2 1.8 1.4c10.8 8.7 66.4 53.5 93.7 76.9 27.3 23.4 47.8 41.6 49.7 43.7q2-9.2 3.8-18.3 1.8-9.2 3.3-18.4 1.5-9.2 2.7-18.5 1.3-9.3 2.3-18.5 1.2-11.5 1.9-23 0.6-11.5 0.8-23 0.2-11.5-0.1-22.9-0.4-11.5-1.2-23z"/>
	<path id="Layer" class="s4" d="m1046.6 883.6q-3.6-13.6-8.3-26.9-4.7-13.3-10.4-26.2-5.7-13-12.4-25.4-6.7-12.4-14.3-24.3-10.8-16.6-22.6-32.5-11.7-16-24.3-31.3-12.7-15.3-26.1-29.8-13.5-14.5-27.7-28.3c-13.9-13.9-27.8-26.3-41.6-39.5-1.4 6.2-4.9 21.1-11.8 43.7-3.6 11.7-10.1 31.1-12.6 38.5-3.7 10.6-10.9 29.8-15.8 41.5-6.6 17.4-17.2 41.6-26.6 61.8-13.6 29.1-21.2 43-36.3 70.7-6.8 12.3-12.6 24.1-21 38.8-3 5-6 10.3-9.6 16.1-1.5 2.3-19 30.6-20.8 33.8-3.5 5.4-7.3 11.6-9.7 15.1-20.9 32-22.7 33.5-26 38.2-7.8 10.6 2.7-3.8-12 16.8l-34.7 49c-5.2 7.1-22.5 29.8-41.6 53.5-19.1 23.7-38.8 49.6-47.5 60l-61.1 72.1v144.8c25.8-2.1 52.6-5.7 80.2-10.7q13.2-2.5 26.4-5.3 13.1-2.9 26.2-6.1 13.1-3.3 26-6.9 13-3.6 25.9-7.6 11.2-3.5 22.4-7.3 11.2-3.9 22.2-8 11.1-4.1 22-8.5 11-4.5 21.8-9.2 9.7-4.2 19.3-8.7 9.6-4.6 19-9.3 9.5-4.8 18.8-9.9 9.3-5 18.5-10.3 11.8-6.8 23.3-14.1 11.4-7.4 22.6-15.2 11.1-7.8 21.9-16.1 10.8-8.3 21.2-17.1 11.7-9.9 22.7-20.5 11-10.6 21.2-21.9 10.3-11.4 19.8-23.4 9.5-11.9 18.1-24.6 9.1-13.1 16.9-27 7.9-13.9 14.4-28.5 6.6-14.5 11.9-29.6 5.3-15.1 9.2-30.6 2.3-8.8 4-17.8 1.8-8.9 3.1-18 1.3-9 2.2-18.1 0.9-9.1 1.2-18.2 0.6-10.3 0.4-20.6-0.3-10.3-1.2-20.5-1-10.3-2.7-20.4-1.7-10.2-4.1-20.2z"/>
	<path id="Layer" class="s5" d="m435.8 1238.9q-5.3-7.8-10-15.9-4.6-8.2-8.7-16.7-4-8.5-7.4-17.2-3.4-8.8-6.1-17.8c-21.6-64.6-28.5-132.3-56.8-194q-8.8-17.6-18.9-34.5-10.2-16.9-21.7-32.9-11.4-16-24.1-31-12.7-15.1-26.6-29.1-3.6 4.8-7.1 9.6-3.5 4.9-6.9 9.8-3.3 5-6.5 10-3.2 5.1-6.2 10.3-2.8 4.7-5.3 9.5-2.5 4.8-4.8 9.8-2.3 4.9-4.3 10-2.1 5-3.9 10.2-1 2.9-1.8 5.8-0.9 2.9-1.6 5.9-0.8 3-1.5 6-0.6 2.9-1.2 5.9-0.6 3.1-1.1 6.2-0.4 3.1-0.8 6.3-0.3 3.1-0.5 6.2-0.3 3.1-0.4 6.3-0.1 4-0.1 8.1 0.1 4 0.3 8.1 0.3 4 0.7 8 0.4 4.1 1.1 8.1 0.7 4.4 1.6 8.8 0.9 4.4 2 8.7 1.1 4.3 2.4 8.6 1.3 4.3 2.8 8.5 2 5.4 4.2 10.8 2.2 5.3 4.7 10.5 2.4 5.2 5.1 10.3 2.7 5 5.7 10l3.5 5.7q6.1 9.8 12.8 19.2 6.8 9.3 14.2 18.2 7.4 8.9 15.4 17.2 8 8.4 16.6 16.2 4.8 4.4 9.8 8.8 4.9 4.3 10 8.5 5.1 4.1 10.3 8.2 5.2 4 10.5 7.9c9.5 6.8 19.2 13.8 29.2 19.5 13.9 8.3 27 16.1 40.9 23.3 18.8 9.7 48.5 23.1 67.5 30.7q-5.7-2.4-10.9-5.5-5.2-3.2-9.9-7.1-4.7-3.9-8.8-8.4-4-4.5-7.4-9.6z"/>
	<path id="Layer" class="s6" d="m858.6 619.3c-1.9-1.8-24.2-21.9-49.7-43.7-25.5-21.7-83.2-68.2-93.7-76.9l-1.8-1.4-80.5-65.1c-3-2.3-5.1-4.2-6.2-5.1-3.8-3.1-35.6-28.8-44.5-36.3l-21.5-18-20.5-17.1c-7.5-6.1-13.8-12-21-18.4-10.1-8.9-30.1-27.7-46.7-42.4-6.4-6-13.9-13.9-20.2-19.3-10.2-9.7-17.9-17.4-26.5-26.6-8.6-9.1-14.7-15.2-20.8-21.9-8.6-9.3-16.8-18.4-24.1-27l-8.3-9.7c4.8 7.9 14.9 22.5 20.1 29.7 13.8 20.5 11.2 16.2 25.1 37 9.4 13.8 25.3 39.6 34 54.3q0.5 0.7 0.9 1.4 0.4 0.7 0.7 1.4 0.4 0.7 0.8 1.4 0.3 0.7 0.7 1.5 2 3.7 3.9 7.6 1.8 3.8 3.6 7.7 1.7 3.9 3.3 7.9 1.6 3.9 3 7.9 0.7 1.9 1.3 3.7 0.6 1.9 1 3.8 0.4 2 0.7 3.9 0.3 1.9 0.5 3.9c0 0 0 651.9 0 652.3v253.6l61.1-72.1c8.7-10.3 28.7-35.7 47.5-59.9 18.9-24.3 35.8-46.5 41.6-53.5l34.8-49.6c14.7-20.7 4.1-6.3 11.9-16.8 3.3-4.7 5.1-6.2 26-38.2l9.7-15.2c1.8-3.1 19.3-31.4 20.8-33.9 3.6-5.7 6.7-10.9 9.6-15.9 8.4-14.7 13.8-26.5 21-38.8 15.1-27.7 22.5-41.6 36.1-70.4 9.4-20.5 19.9-44.6 26.6-61.8 4.8-12.1 12-31.3 15.6-41.6 2.6-7.5 9.2-26.7 12.8-38.5 6.9-22.7 10.3-37.6 11.7-43.8z"/>
	<path id="Layer" class="s7" d="m255.4 849.1q4-5.2 8.2-10.4 4.2-5.1 8.6-10.1 4.3-5 8.8-9.9 4.5-4.9 9.1-9.6c16-15.9 25.8-26.2 32.5-33-55.5-43.6-132.3-76.3-115.2-157.8 15.4-73 116-60.6 154.8-113.8 18.7-25.5 25.6-56.8 38.4-85.2 2.9-7.4 6.8-14.4 11.6-20.7 4.7-6.4 10.4-12.1 16.7-16.9 6.3-4.9 13.2-8.9 20.6-11.9 7.3-3 15.1-5 23-5.9q-0.2-2-0.5-3.9-0.3-2-0.7-3.9-0.5-1.9-1-3.8-0.6-1.9-1.3-3.8-1.4-4-3-7.9-1.6-4-3.3-7.9-1.8-3.9-3.6-7.7-1.9-3.8-3.9-7.5-0.4-0.8-0.7-1.5-0.4-0.8-0.8-1.5-0.3-0.7-0.7-1.4-0.5-0.7-0.9-1.4c-8.7-14.6-24.6-40.1-34.1-54.4-13.8-20.7-10.8-16.4-25-36.8-5.2-7.4-15.3-21.9-20.1-29.8q-0.4-0.4-0.7-0.7-0.3-0.4-0.6-0.8-0.4-0.4-0.7-0.8-0.2-0.4-0.5-0.8-3.6-4.8-6.9-9.9-3.3-5.1-6.4-10.3-3-5.2-5.9-10.5-2.8-5.4-5.4-10.8l-3.6-8.8-44.8 33.3c-35.5 26-71.3 51.8-105.8 79.1-22.7 17.9-45 36.5-66.3 55.4q-7.9 7.1-15.6 14.5-7.7 7.4-15.1 15-7.4 7.6-14.5 15.5-7.1 7.9-14 16c-34.2 41.6-61.2 88.1-65.1 141.3q-0.2 3.3-0.4 6.6-0.1 3.2-0.1 6.5 0 3.2 0.1 6.5 0.2 3.2 0.4 6.5 0.2 3.5 0.5 7 0.3 3.5 0.8 6.9 0.4 3.5 1 6.9 0.6 3.5 1.3 6.9 2.5 12.1 6.4 23.8 3.8 11.7 8.9 22.9 5.2 11.1 11.5 21.7 6.4 10.5 13.9 20.3 8.5 10.8 17.5 21.1 9 10.3 18.5 20.1 9.6 9.8 19.6 19.1 10.1 9.3 20.6 18l13.9 12.3c32.5 27.7 65.7 55.4 97 85.9 8.8 8.3 17.3 17.1 25.7 25.9l-2.6-2.9z"/>
</svg>