<?xml version="1.0" encoding="UTF-8"?>
<svg xmlns="http://www.w3.org/2000/svg" xmlns:xlink="http://www.w3.org/1999/xlink" width="400px" height="400px" viewBox="0 0 400 400" version="1.1">
<g id="surface1">
<path style=" stroke:none;fill-rule:nonzero;fill:rgb(45.490196%,1.568628%,1.568628%);fill-opacity:1;" d="M 381.972656 245.871094 L 381.972656 21.464844 C 381.972656 9.621094 372.570312 0 361.035156 0 L 25.621094 0 C 8.953125 -0.0429688 1.070312 20.921875 13.386719 32.347656 L 291.859375 260.53125 C 297.238281 264.945312 303.886719 267.339844 310.746094 267.339844 L 360.996094 267.339844 C 372.570312 267.339844 381.933594 257.71875 381.933594 245.914062 Z M 381.972656 245.871094 "/>
<path style=" stroke:none;fill-rule:nonzero;fill:rgb(45.490196%,1.568628%,1.568628%);fill-opacity:1;" d="M 0 378.457031 C 0 390.304688 9.359375 399.882812 20.9375 399.882812 L 356.355469 399.882812 C 372.980469 399.921875 380.902344 378.960938 368.546875 367.535156 L 90.074219 139.347656 C 84.695312 134.9375 78.042969 132.542969 71.1875 132.542969 L 20.9375 132.542969 C 9.359375 132.542969 0 142.160156 0 153.964844 Z M 0 378.457031 "/>
</g>
</svg>
