<svg width="291" height="344" viewBox="0 0 291 344" fill="none" xmlns="http://www.w3.org/2000/svg">
  <defs>
    <pattern id="repeatingWaveGreen" x="0" y="0" width="291" height="344" patternUnits="userSpaceOnUse">
      <path d="M24.0001 -366.072L224.855 -307.7142C275.62 -292.9648 281.481 -223.495 233.9 -200.46L58.3038 -115.45C10.7826 -92.444 16.5524 -22.984 67.2182 -8.135L94.6322 0M94.6322 687.868L67.2182 679.833C16.5524 664.984 10.7826 595.524 58.3038 572.517L232.792 488.044C280.512 464.942 274.438 395.118 223.445 380.603L91.0882 343.93M94.6322 343.868L67.2182 335.833C16.5524 320.984 10.7826 251.524 58.3038 228.517L232.798 144.041C280.517 120.939 274.444 51.117 223.453 36.601L94.6322 0" stroke="#00FF7740" stroke-width="46.1648" stroke-linecap="round"/>
    </pattern>
  </defs>
  <rect x="0" y="0" width="291" height="344" fill="url(#repeatingWaveGreen)"/>
</svg>
