<svg width="290" height="344" viewBox="0 0 290 344" fill="none" xmlns="http://www.w3.org/2000/svg">
  <defs>
    <pattern id="repeatingWave" x="0" y="0" width="290" height="344" patternUnits="userSpaceOnUse">
      <path d="M266.088 -366.072L65.2325 -307.7142C14.4682 -292.9648 8.60691 -223.495 56.188 -200.46L231.784 -115.45C279.305 -92.444 273.535 -22.984 222.87 -8.135L195.456 0M195.456 687.868L222.87 679.833C273.535 664.984 279.305 595.524 231.784 572.517L57.2958 488.044C9.5758 464.942 15.6501 395.118 66.6425 380.603L199 343.93M195.456 343.868L222.87 335.833C273.535 320.984 279.305 251.524 231.784 228.517L57.2897 144.041C9.57049 120.939 15.6435 51.117 66.6348 36.601L195.456 0" stroke="#00FF77" stroke-width="46.1648" stroke-linecap="round"/>
    </pattern>
  </defs>
  <rect x="0" y="0" width="290" height="344" fill="url(#repeatingWave)"/>
</svg>
