<svg viewBox="0 0 201 59" fill="none" xmlns="http://www.w3.org/2000/svg">
<path d="M12.2466 6.84654C10.7079 6.39062 9.09101 7.26833 8.63509 8.80703C8.17917 10.3457 9.0569 11.9626 10.5956 12.4186L29.5975 17.7971C30.8697 18.1741 31.0125 19.9187 29.8187 20.4976L4.09608 32.9688C-1.88237 35.8674 -1.15437 44.6071 5.22122 46.4766L23.8612 51.9425L23.9335 51.9626C25.4514 52.3663 27.0228 51.4877 27.4674 49.9718C27.9189 48.4318 27.0365 46.8172 25.4965 46.3656L6.85654 40.8998C5.58141 40.5259 5.43577 38.7779 6.63144 38.1982L32.354 25.727C38.3234 22.8328 37.6092 14.1096 31.2486 12.225L12.2466 6.84654Z" fill="#989898"/>
<path d="M32.6228 0.324673C34.1639 -0.123088 35.7763 0.763256 36.2241 2.30435C36.6718 3.84545 35.7855 5.45781 34.2444 5.90557L8.95895 13.2521C5.12457 14.3662 4.68188 19.6209 8.27578 21.3609L30.3814 32.0626C38.7567 36.1173 37.7398 48.3593 28.8103 50.9765L3.82665 58.299C2.2866 58.7504 0.672252 57.8678 0.220871 56.3278C-0.230493 54.7878 0.65202 53.1734 2.19206 52.722L27.1757 45.3995C31.0026 44.2778 31.4384 39.0312 27.849 37.2935L5.74338 26.5918C-2.64246 22.532 -1.60939 10.2708 7.33752 7.67133L32.6228 0.324673Z" fill="#00FF77"/>
<path d="M57.9628 26.6135C57.0439 26.6135 56.2003 26.5049 55.4318 26.2877C54.68 26.0706 54.0117 25.7698 53.427 25.3856C52.859 25.0014 52.3829 24.5753 51.9986 24.1076C51.6311 23.6231 51.3721 23.1219 51.2218 22.604L54.0786 21.7269C54.2957 22.345 54.7218 22.888 55.3566 23.3558C55.9914 23.8236 56.7766 24.0658 57.7122 24.0825C58.7981 24.0825 59.6585 23.857 60.2933 23.4059C60.9282 22.9548 61.2456 22.3617 61.2456 21.6267C61.2456 20.9584 60.9783 20.4154 60.4437 19.9978C59.9091 19.5634 59.1907 19.2293 58.2886 18.9954L56.1334 18.4441C55.3148 18.2269 54.5714 17.9095 53.9031 17.4918C53.2516 17.0742 52.7337 16.5479 52.3494 15.9131C51.9819 15.2782 51.7981 14.5264 51.7981 13.6577C51.7981 12.0205 52.3327 10.7508 53.4019 9.84865C54.4712 8.9298 55.9998 8.47038 57.9879 8.47038C59.1072 8.47038 60.0845 8.64579 60.9198 8.99663C61.7719 9.33076 62.4735 9.79853 63.0248 10.4C63.5761 10.9847 63.9854 11.6529 64.2528 12.4047L61.4461 13.3069C61.1955 12.6386 60.7611 12.0873 60.143 11.6529C59.5248 11.2186 58.7563 11.0014 57.8375 11.0014C56.8852 11.0014 56.1334 11.2269 55.5821 11.678C55.0475 12.1291 54.7802 12.7556 54.7802 13.5575C54.7802 14.209 54.9891 14.7186 55.4067 15.0861C55.8411 15.4369 56.4258 15.7042 57.1609 15.888L59.316 16.4143C60.8864 16.7985 62.106 17.4584 62.9747 18.394C63.8434 19.3295 64.2778 20.3653 64.2778 21.5014C64.2778 22.5037 64.0356 23.3892 63.5511 24.1577C63.0666 24.9262 62.3482 25.5276 61.396 25.962C60.4604 26.3963 59.316 26.6135 57.9628 26.6135ZM71.1279 26.3128V11.4274H65.7401V8.77109H79.4226V11.4274H74.0348V26.3128H71.1279ZM81.835 26.3128V8.77109H88.0247C89.2276 8.77109 90.2884 9.00498 91.2073 9.47276C92.1261 9.94054 92.8445 10.5921 93.3624 11.4274C93.8803 12.246 94.1392 13.1983 94.1392 14.2842C94.1392 15.3701 93.8636 16.3307 93.3123 17.1661C92.7777 18.0014 92.0342 18.6613 91.082 19.1458C90.1297 19.6135 89.0522 19.8474 87.8493 19.8474H84.7419V26.3128H81.835ZM91.5581 26.3128L87.4483 19.1959L89.7037 17.6422L94.8409 26.3128H91.5581ZM84.7419 17.1661H88.15C88.718 17.1661 89.2192 17.0408 89.6536 16.7902C90.1047 16.5396 90.4638 16.1971 90.7311 15.7627C91.0152 15.3284 91.1572 14.8355 91.1572 14.2842C91.1572 13.4489 90.8564 12.7639 90.255 12.2293C89.6536 11.6947 88.8767 11.4274 87.9245 11.4274H84.7419V17.1661ZM110.043 26.3128L103.201 8.77109H106.108L113.125 26.3128H110.043ZM96.0344 26.3128L103.026 8.77109H105.958L99.1167 26.3128H96.0344ZM99.3172 22.0026V19.4214H109.817V22.0026H99.3172ZM115.411 26.3128V8.77109H118.418L127.74 21.4512V8.77109H130.647V26.3128H127.74L118.318 13.4823V26.3128H115.411ZM134.817 26.3128V8.77109H140.331C142.051 8.77109 143.572 9.14698 144.891 9.89877C146.228 10.6339 147.272 11.6613 148.024 12.9811C148.792 14.3009 149.177 15.8212 149.177 17.5419C149.177 19.246 148.792 20.7579 148.024 22.0777C147.272 23.3975 146.228 24.4333 144.891 25.1851C143.572 25.9369 142.051 26.3128 140.331 26.3128H134.817ZM137.724 23.6064H140.331C141.149 23.6064 141.918 23.456 142.636 23.1553C143.354 22.8379 143.981 22.4035 144.515 21.8522C145.05 21.3009 145.468 20.6577 145.768 19.9226C146.069 19.1875 146.22 18.394 146.22 17.5419C146.22 16.6899 146.069 15.8964 145.768 15.1613C145.468 14.4262 145.05 13.783 144.515 13.2317C143.981 12.6804 143.354 12.2544 142.636 11.9537C141.918 11.6362 141.149 11.4775 140.331 11.4775H137.724V23.6064ZM158.005 26.6135C157.087 26.6135 156.243 26.5049 155.474 26.2877C154.723 26.0706 154.054 25.7698 153.47 25.3856C152.902 25.0014 152.425 24.5753 152.041 24.1076C151.674 23.6231 151.415 23.1219 151.264 22.604L154.121 21.7269C154.338 22.345 154.764 22.888 155.399 23.3558C156.034 23.8236 156.819 24.0658 157.755 24.0825C158.841 24.0825 159.701 23.857 160.336 23.4059C160.971 22.9548 161.288 22.3617 161.288 21.6267C161.288 20.9584 161.021 20.4154 160.486 19.9978C159.952 19.5634 159.233 19.2293 158.331 18.9954L156.176 18.4441C155.357 18.2269 154.614 17.9095 153.946 17.4918C153.294 17.0742 152.776 16.5479 152.392 15.9131C152.024 15.2782 151.841 14.5264 151.841 13.6577C151.841 12.0205 152.375 10.7508 153.445 9.84865C154.514 8.9298 156.042 8.47038 158.03 8.47038C159.15 8.47038 160.127 8.64579 160.962 8.99663C161.814 9.33076 162.516 9.79853 163.067 10.4C163.619 10.9847 164.028 11.6529 164.295 12.4047L161.489 13.3069C161.238 12.6386 160.804 12.0873 160.186 11.6529C159.567 11.2186 158.799 11.0014 157.88 11.0014C156.928 11.0014 156.176 11.2269 155.625 11.678C155.09 12.1291 154.823 12.7556 154.823 13.5575C154.823 14.209 155.032 14.7186 155.449 15.0861C155.884 15.4369 156.468 15.7042 157.203 15.888L159.359 16.4143C160.929 16.7985 162.149 17.4584 163.017 18.394C163.886 19.3295 164.32 20.3653 164.32 21.5014C164.32 22.5037 164.078 23.3892 163.594 24.1577C163.109 24.9262 162.391 25.5276 161.439 25.962C160.503 26.3963 159.359 26.6135 158.005 26.6135ZM64.353 49.3128L57.5117 31.7711H60.4186L67.4353 49.3128H64.353ZM50.3447 49.3128L57.3363 31.7711H60.2683L53.427 49.3128H50.3447ZM53.6275 45.0026V42.4214H64.1275V45.0026H53.6275ZM76.9578 49.6135C75.1869 49.6135 73.6081 49.2293 72.2215 48.4608C70.8516 47.6756 69.774 46.6064 68.9888 45.2532C68.2036 43.8832 67.811 42.3212 67.811 40.567C67.811 38.7794 68.2036 37.209 68.9888 35.8558C69.774 34.4859 70.8516 33.4167 72.2215 32.6482C73.6081 31.863 75.1869 31.4704 76.9578 31.4704C77.9769 31.4704 78.9291 31.6291 79.8146 31.9465C80.7167 32.2639 81.527 32.6983 82.2453 33.2496C82.9637 33.7842 83.5484 34.4107 83.9995 35.1291L81.6439 36.6327C81.3265 36.1482 80.9172 35.7138 80.416 35.3296C79.9148 34.9453 79.3635 34.6529 78.7621 34.4525C78.1773 34.2353 77.5759 34.1267 76.9578 34.1267C75.7549 34.1267 74.6857 34.4023 73.7501 34.9537C72.8313 35.505 72.1046 36.2651 71.57 37.2341C71.0354 38.1863 70.768 39.2973 70.768 40.567C70.768 41.8033 71.027 42.9059 71.5449 43.8749C72.0795 44.8438 72.8146 45.604 73.7501 46.1553C74.7024 46.7066 75.7967 46.9823 77.0329 46.9823C78.0019 46.9823 78.8707 46.7818 79.6391 46.3808C80.4076 45.9799 81.0091 45.4202 81.4434 44.7018C81.8945 43.9835 82.12 43.1565 82.12 42.2209L84.9017 41.8701C84.9017 43.4572 84.5592 44.8355 83.8742 46.0049C83.206 47.1577 82.2704 48.0515 81.0675 48.6863C79.8814 49.3045 78.5115 49.6135 76.9578 49.6135ZM77.91 42.4465V40.0909H84.9017V42.0455L83.348 42.4465H77.91ZM87.7083 49.3128V31.7711H98.509V34.4274H90.6152V39.0885H97.5818V41.6947H90.6152V46.6565H98.5842V49.3128H87.7083ZM102.49 49.3128V31.7711H105.497L114.819 44.4512V31.7711H117.726V49.3128H114.819L105.396 36.4823V49.3128H102.49ZM125.53 49.3128V34.4274H120.142V31.7711H133.824V34.4274H128.437V49.3128H125.53ZM142.001 49.6135C141.082 49.6135 140.238 49.5049 139.47 49.2877C138.718 49.0706 138.049 48.7698 137.465 48.3856C136.897 48.0014 136.421 47.5753 136.036 47.1076C135.669 46.6231 135.41 46.1219 135.259 45.604L138.116 44.7269C138.333 45.345 138.759 45.888 139.394 46.3558C140.029 46.8236 140.814 47.0658 141.75 47.0825C142.836 47.0825 143.696 46.857 144.331 46.4059C144.966 45.9548 145.283 45.3617 145.283 44.6267C145.283 43.9584 145.016 43.4154 144.481 42.9978C143.947 42.5634 143.228 42.2293 142.326 41.9954L140.171 41.4441C139.353 41.2269 138.609 40.9095 137.941 40.4918C137.289 40.0742 136.771 39.5479 136.387 38.9131C136.02 38.2782 135.836 37.5264 135.836 36.6577C135.836 35.0205 136.37 33.7508 137.44 32.8487C138.509 31.9298 140.038 31.4704 142.026 31.4704C143.145 31.4704 144.122 31.6458 144.958 31.9966C145.81 32.3308 146.511 32.7985 147.063 33.4C147.614 33.9847 148.023 34.6529 148.29 35.4047L145.484 36.3069C145.233 35.6386 144.799 35.0873 144.181 34.6529C143.563 34.2186 142.794 34.0014 141.875 34.0014C140.923 34.0014 140.171 34.2269 139.62 34.678C139.085 35.1291 138.818 35.7556 138.818 36.5575C138.818 37.209 139.027 37.7186 139.444 38.0861C139.879 38.4369 140.464 38.7042 141.199 38.888L143.354 39.4143C144.924 39.7985 146.144 40.4584 147.012 41.394C147.881 42.3295 148.316 43.3653 148.316 44.5014C148.316 45.5037 148.073 46.3892 147.589 47.1577C147.104 47.9262 146.386 48.5276 145.434 48.962C144.498 49.3963 143.354 49.6135 142.001 49.6135Z" fill="white"/>
<rect x="175.858" y="51.6324" width="44.6391" height="24.0444" rx="5.81956" transform="rotate(-90 175.858 51.6324)" stroke="#777777" stroke-width="1.25298"/>
<path d="M194.587 40.3637C194.587 41.0284 194.518 41.6186 194.38 42.1343C194.231 42.6499 194.031 43.0969 193.779 43.475C193.515 43.8532 193.229 44.1626 192.919 44.4033C192.598 44.6439 192.26 44.8215 191.905 44.9361L191.424 43.5438C191.928 43.3719 192.369 43.0281 192.747 42.5124C193.114 41.9853 193.297 41.3435 193.297 40.5872C193.297 39.659 193.114 38.9313 192.747 38.4041C192.381 37.877 191.894 37.6134 191.286 37.6134C190.725 37.6134 190.272 37.8484 189.928 38.3182C189.573 38.788 189.298 39.4069 189.103 40.1747L188.759 41.4983C188.622 42.0369 188.421 42.5353 188.158 42.9937C187.883 43.4407 187.539 43.8016 187.126 44.0767C186.702 44.3402 186.198 44.472 185.614 44.472C184.525 44.472 183.677 44.1225 183.07 43.4235C182.451 42.713 182.141 41.6931 182.141 40.3637C182.141 39.573 182.273 38.8912 182.537 38.3182C182.789 37.7452 183.116 37.2811 183.517 36.9259C183.906 36.5591 184.33 36.3013 184.789 36.1523L185.27 37.5275C184.697 37.7452 184.25 38.1119 183.929 38.6276C183.597 39.1433 183.431 39.7678 183.431 40.5013C183.431 41.2691 183.62 41.8821 183.998 42.3405C184.365 42.7875 184.869 43.0109 185.511 43.0109C186.061 43.0109 186.485 42.8333 186.783 42.478C187.069 42.1228 187.281 41.6587 187.419 41.0857L187.745 39.7621C188.02 38.5932 188.479 37.6994 189.12 37.0806C189.751 36.4503 190.433 36.1351 191.166 36.1351C191.796 36.1351 192.375 36.2956 192.902 36.6164C193.418 36.9373 193.83 37.4129 194.14 38.0432C194.438 38.662 194.587 39.4355 194.587 40.3637ZM194.38 33.6554L182.348 33.6554L182.348 29.9941C182.348 28.8596 182.606 27.8626 183.121 27.0031C183.625 26.1322 184.33 25.4503 185.236 24.9576C186.141 24.4648 187.184 24.2184 188.364 24.2184C189.533 24.2184 190.57 24.4648 191.475 24.9576C192.381 25.4503 193.091 26.1322 193.607 27.0031C194.123 27.8626 194.38 28.8596 194.38 29.9941L194.38 33.6554ZM193.04 32.1943L193.04 29.9941C193.04 29.3867 192.925 28.8252 192.696 28.3095C192.455 27.7938 192.117 27.3412 191.682 26.9515C191.246 26.5504 190.748 26.241 190.186 26.0233C189.613 25.7941 189.006 25.6795 188.364 25.6795C187.722 25.6795 187.121 25.7941 186.559 26.0233C185.986 26.241 185.482 26.5504 185.046 26.9515C184.611 27.3412 184.279 27.7938 184.05 28.3095C183.809 28.8252 183.689 29.3867 183.689 29.9941L183.689 32.1943L193.04 32.1943ZM190.255 20.8067L188.931 21.4083L182.348 15.0826L182.348 13.2605L190.255 20.8067ZM194.38 21.8209L182.348 21.8209L182.348 20.4285L194.38 20.4285L194.38 21.8209ZM194.38 14.8076L188.261 19.741L187.333 18.7955L194.38 13.0371L194.38 14.8076Z" fill="#777777"/>
</svg>
